<svg width="1080" height="1080" viewBox="0 0 1080 1080" fill="none" xmlns="http://www.w3.org/2000/svg">
<rect width="1080" height="1080" fill="#F5F5F5"/>
<g clip-path="url(#clip0_2_59)">
<rect width="1080" height="1080" fill="url(#paint0_radial_2_59)"/>
<g opacity="0.4">
<path d="M960.214 807.8C918.928 799.299 883.726 822.288 887.973 863.373C890.152 906.697 910.821 945.587 935.603 964.999C942.825 969.164 953.773 968.331 961.009 962.619C968.365 969.975 984.527 971.507 995.192 960.834C1004.76 966.509 1021.2 970.339 1034.7 958.462C1044.06 963.69 1049.46 959.317 1054.68 956.268C1087.3 924.16 1122.72 778.266 1022.14 806.209C1022.14 806.209 1003.43 813.743 993.556 814.152C982.251 814.628 989.971 813.929 960.214 807.8Z" fill="#FFCA6C" stroke="#7A3D2E" stroke-linecap="round" stroke-linejoin="round"/>
<path d="M960.823 808.09C908.129 833.184 941.144 941.103 960.258 963.036M1025.38 805.844C1073.58 828.64 1046.24 932.951 1034.92 959.666M995.066 814.821C1010.86 866.222 1002.91 938.923 996.189 961.347M969.741 808.99C969.741 808.99 975.75 777.195 982.043 773.662C986.78 770.992 995.467 770.3 1000.7 773.662C1010.37 779.858 1016.9 806.647 1016.9 806.647C1016.9 806.647 997.981 820.831 969.741 808.99Z" stroke="#7A3D2E" stroke-linecap="round" stroke-linejoin="round"/>
</g>
<path opacity="0.2" fill-rule="evenodd" clip-rule="evenodd" d="M778.045 -37.6695C1191.7 -107.518 1533.14 168.307 946.951 96.9008C1520.72 236.905 1099.87 373.281 741.598 163.745C906.391 374.444 144.09 234.994 372.011 96.8652C-41.6458 166.715 -383.349 -107.651 203.101 -37.7046C-375.614 -177.096 45.2476 -313.471 408.458 -104.549C238.719 -314.636 1005.96 -175.798 778.045 -37.6695ZM577.439 2.90328C624.226 11.3698 664.216 30.6648 661.575 45.2598C658.933 59.8548 614.454 65.3727 567.667 56.9062C520.886 48.4409 485.834 28.531 488.475 13.9361C491.116 -0.658902 530.659 -5.56207 577.439 2.90328Z" fill="#FFCA6C"/>
<rect width="558" height="764" transform="translate(255)" fill="url(#paint1_radial_2_59)"/>
<path opacity="0.4" fill-rule="evenodd" clip-rule="evenodd" d="M179.383 872.657C219.885 825.698 259.411 895.158 198.902 906.408C259.411 918.148 219.397 987.119 179.383 940.159C199.878 998.858 120.337 998.369 140.833 940.159C100.33 987.119 60.8041 918.148 121.313 906.408C60.3161 895.158 100.33 826.187 140.833 872.657C119.849 814.448 199.878 814.448 179.383 872.657ZM159.863 897.604C164.744 897.604 169.135 901.517 169.135 906.408C169.135 911.3 164.744 915.702 159.863 915.702C154.984 915.702 151.08 911.3 151.08 906.408C151.08 901.517 154.984 897.604 159.863 897.604Z" fill="#FFCA6C"/>
<g opacity="0.6">
<path d="M16 383C16 383 55.3573 410.543 77.6835 415.783C93.5291 419.505 110.292 417.126 126.509 415.783C142.236 414.486 173.2 401.983 173.2 401.983C164.791 415.798 168.363 424.459 174.409 435.041C161.069 444.367 144.219 447.631 126.438 449.275H74.6092C44.127 444.138 34.8488 433.137 25.7761 417.781C24.6776 406.931 25.5706 401.185 16 383Z" fill="#FFCA6C" stroke="#D37528" stroke-linecap="round" stroke-linejoin="round"/>
<path d="M176.551 392.76C187.378 401.548 189.71 409.215 206.962 414.763L231.809 387.584C239.499 379.665 248.24 389.528 243.798 396.649C234.457 407.713 225.755 418.793 219.006 429.865C217.505 439.823 213.846 452.571 194.973 471.277C189.955 456.783 186.493 443.49 173.556 434.607C165.099 422.255 170.505 406.788 176.551 392.76Z" stroke="#D37528" stroke-linecap="round" stroke-linejoin="round"/>
<path d="M184.691 447.979C149.017 474.85 75.115 499.467 34.343 449.275V472.573C66.2319 517.692 152.929 494.307 192.452 463.137C190.595 457.352 188.54 451.765 184.691 447.979Z" fill="#FFCA6C" stroke="#D37528" stroke-linecap="round" stroke-linejoin="round"/>
<path d="M78.4659 475.964C84.7337 475.964 89.8147 470.844 89.8147 464.528C89.8147 458.213 84.7337 453.092 78.4659 453.092C72.1981 453.092 67.1171 458.213 67.1171 464.528C67.1171 470.844 72.1981 475.964 78.4659 475.964Z" fill="#FFCA6C" stroke="#D37528" stroke-linecap="round" stroke-linejoin="round"/>
<path d="M101.377 476.027C107.645 476.027 112.726 470.907 112.726 464.591C112.726 458.275 107.645 453.156 101.377 453.156C95.1091 453.156 90.0281 458.275 90.0281 464.591C90.0281 470.907 95.1091 476.027 101.377 476.027Z" fill="#FFCA6C" stroke="#D37528" stroke-linecap="round" stroke-linejoin="round"/>
<path d="M124.723 474.731C130.99 474.731 136.071 469.611 136.071 463.295C136.071 456.98 130.99 451.86 124.723 451.86C118.455 451.86 113.374 456.98 113.374 463.295C113.374 469.611 118.455 474.731 124.723 474.731Z" fill="#FFCA6C" stroke="#D37528" stroke-linecap="round" stroke-linejoin="round"/>
<path d="M147.136 467.405C153.403 467.405 158.484 462.766 158.484 457.044C158.484 451.322 153.403 446.683 147.136 446.683C140.868 446.683 135.787 451.322 135.787 457.044C135.787 462.766 140.868 467.405 147.136 467.405Z" fill="#FFCA6C" stroke="#D37528" stroke-linecap="round" stroke-linejoin="round"/>
<path d="M169.248 455.914C174.058 455.914 177.958 452.376 177.958 448.011C177.958 443.647 174.058 440.108 169.248 440.108C164.439 440.108 160.539 443.647 160.539 448.011C160.539 452.376 164.439 455.914 169.248 455.914Z" fill="#FFCA6C" stroke="#D37528" stroke-linecap="round" stroke-linejoin="round"/>
<path d="M168.411 421.235C185.9 427.708 198.687 424.428 207.262 414.384M191.598 459.233C194.436 440.803 203.508 431.209 216.454 428.585" stroke="#D37528" stroke-linecap="round" stroke-linejoin="round"/>
</g>
</g>
<defs>
<radialGradient id="paint0_radial_2_59" cx="0" cy="0" r="1" gradientUnits="userSpaceOnUse" gradientTransform="translate(540 540) rotate(90) scale(793)">
<stop stop-color="#F5C92B"/>
<stop offset="1" stop-color="#D37528"/>
</radialGradient>
<radialGradient id="paint1_radial_2_59" cx="0" cy="0" r="1" gradientUnits="userSpaceOnUse" gradientTransform="translate(279 300) rotate(95.6935) scale(665.282 485.9)">
<stop stop-color="white"/>
<stop offset="1" stop-color="#FCDCB8"/>
</radialGradient>
<clipPath id="clip0_2_59">
<rect width="1080" height="1080" fill="white"/>
</clipPath>
</defs>
</svg>
