<svg width="65" height="58" viewBox="0 0 65 58" fill="none" xmlns="http://www.w3.org/2000/svg">
<path d="M14.661 22.2848V20.9586C14.661 19.9517 14.8738 19.0267 15.2995 18.1835C15.7333 17.3321 16.3596 16.6527 17.1782 16.1451C18.005 15.6294 19.0119 15.3715 20.1989 15.3715C21.4023 15.3715 22.4133 15.6253 23.2319 16.1329C24.0587 16.6404 24.6808 17.3198 25.0983 18.1712C25.524 19.0144 25.7368 19.9435 25.7368 20.9586V22.2848C25.7368 23.2917 25.524 24.2208 25.0983 25.0722C24.6726 25.9153 24.0464 26.5907 23.2196 27.0982C22.3928 27.614 21.3859 27.8718 20.1989 27.8718C18.9955 27.8718 17.9845 27.614 17.1659 27.0982C16.3473 26.5907 15.7252 25.9153 15.2995 25.0722C14.8738 24.2208 14.661 23.2917 14.661 22.2848ZM18.2342 20.9586V22.2848C18.2342 22.866 18.3734 23.4145 18.6517 23.9302C18.9382 24.4459 19.454 24.7038 20.1989 24.7038C20.9438 24.7038 21.4514 24.45 21.7215 23.9425C21.9999 23.4349 22.139 22.8824 22.139 22.2848V20.9586C22.139 20.361 22.008 19.8044 21.7461 19.2886C21.4841 18.7729 20.9684 18.515 20.1989 18.515C19.4621 18.515 18.9505 18.7729 18.664 19.2886C18.3775 19.8044 18.2342 20.361 18.2342 20.9586ZM1.75545 7.89347V6.56731C1.75545 5.55222 1.97238 4.62309 2.40625 3.77992C2.84012 2.92855 3.46636 2.2491 4.28498 1.74156C5.11178 1.23402 6.11049 0.980245 7.28112 0.980245C8.49267 0.980245 9.50776 1.23402 10.3264 1.74156C11.145 2.2491 11.7671 2.92855 12.1928 3.77992C12.6185 4.62309 12.8313 5.55222 12.8313 6.56731V7.89347C12.8313 8.90855 12.6144 9.83769 12.1805 10.6809C11.7549 11.524 11.1286 12.1994 10.3018 12.7069C9.4832 13.2063 8.4763 13.456 7.28112 13.456C6.08594 13.456 5.07494 13.2022 4.24814 12.6947C3.42952 12.1789 2.80737 11.5036 2.38169 10.6686C1.9642 9.82541 1.75545 8.90037 1.75545 7.89347ZM5.35327 6.56731V7.89347C5.35327 8.49106 5.49244 9.04363 5.77077 9.55117C6.05728 10.0587 6.56073 10.3125 7.28112 10.3125C8.03425 10.3125 8.54588 10.0587 8.81602 9.55117C9.09435 9.04363 9.23352 8.49106 9.23352 7.89347V6.56731C9.23352 5.96972 9.10254 5.41306 8.84058 4.89733C8.57863 4.3816 8.0588 4.12373 7.28112 4.12373C6.55255 4.12373 6.0491 4.38569 5.77077 4.90961C5.49244 5.43352 5.35327 5.98609 5.35327 6.56731ZM3.37631 27L20.6655 1.85207H23.8827L6.59348 27H3.37631ZM24.1528 44.426C24.1528 47.1684 23.633 49.5015 22.5934 51.4252C21.5619 53.349 20.1539 54.8184 18.3693 55.8335C16.5929 56.8404 14.5955 57.3438 12.377 57.3438C10.1422 57.3438 8.13657 56.8363 6.36017 55.8212C4.58377 54.8061 3.17984 53.3367 2.14839 51.4129C1.11693 49.4892 0.601199 47.1602 0.601199 44.426C0.601199 41.6837 1.11693 39.3506 2.14839 37.4269C3.17984 35.5031 4.58377 34.0378 6.36017 33.0309C8.13657 32.0158 10.1422 31.5083 12.377 31.5083C14.5955 31.5083 16.5929 32.0158 18.3693 33.0309C20.1539 34.0378 21.5619 35.5031 22.5934 37.4269C23.633 39.3506 24.1528 41.6837 24.1528 44.426ZM18.7622 44.426C18.7622 42.6496 18.4962 41.1516 17.9641 39.9318C17.4402 38.7121 16.6993 37.787 15.7415 37.1567C14.7837 36.5264 13.6622 36.2112 12.377 36.2112C11.0918 36.2112 9.97028 36.5264 9.01249 37.1567C8.05471 37.787 7.30977 38.7121 6.77767 39.9318C6.25375 41.1516 5.9918 42.6496 5.9918 44.426C5.9918 46.2024 6.25375 47.7005 6.77767 48.9202C7.30977 50.14 8.05471 51.065 9.01249 51.6954C9.97028 52.3257 11.0918 52.6409 12.377 52.6409C13.6622 52.6409 14.7837 52.3257 15.7415 51.6954C16.6993 51.065 17.4402 50.14 17.9641 48.9202C18.4962 47.7005 18.7622 46.2024 18.7622 44.426ZM28.0914 57V31.8521H44.7421V36.2358H33.4083V42.228H43.6369V46.6117H33.4083V57H28.0914ZM48.3184 57V31.8521H64.9691V36.2358H53.6353V42.228H63.864V46.6117H53.6353V57H48.3184Z" fill="#D37528"/>
</svg>
