<svg width="116" height="95" viewBox="0 0 116 95" fill="none" xmlns="http://www.w3.org/2000/svg">
<path d="M10.1913 0.648498H12.9723V10.6779C12.9723 11.7773 12.7124 12.7443 12.1927 13.5788C11.678 14.4134 10.9534 15.0655 10.0189 15.5353C9.08442 16 7.99252 16.2324 6.74321 16.2324C5.48891 16.2324 4.39451 16 3.46003 15.5353C2.52555 15.0655 1.80095 14.4134 1.28623 13.5788C0.771519 12.7443 0.514162 11.7773 0.514162 10.6779V0.648498H3.29512V10.4456C3.29512 11.0852 3.43504 11.6549 3.71489 12.1546C3.99973 12.6544 4.39951 13.0466 4.91423 13.3315C5.42894 13.6113 6.0386 13.7512 6.74321 13.7512C7.44782 13.7512 8.05749 13.6113 8.5722 13.3315C9.09191 13.0466 9.49169 12.6544 9.77154 12.1546C10.0514 11.6549 10.1913 11.0852 10.1913 10.4456V0.648498ZM15.995 16V0.648498H21.7518C22.9311 0.648498 23.9206 0.868376 24.7201 1.30813C25.5247 1.74789 26.1319 2.35255 26.5416 3.12213C26.9564 3.88671 27.1638 4.75622 27.1638 5.73068C27.1638 6.71514 26.9564 7.58966 26.5416 8.35423C26.1269 9.11881 25.5147 9.72098 24.7051 10.1607C23.8956 10.5955 22.8986 10.8129 21.7143 10.8129H17.8989V8.52664H21.3395C22.0291 8.52664 22.5938 8.4067 23.0336 8.16684C23.4733 7.92697 23.7981 7.59715 24.008 7.17738C24.2229 6.75762 24.3304 6.27538 24.3304 5.73068C24.3304 5.18599 24.2229 4.70625 24.008 4.29148C23.7981 3.87671 23.4708 3.55439 23.0261 3.32452C22.5863 3.08965 22.0191 2.97221 21.3245 2.97221H18.7759V16H15.995ZM28.9047 2.97971V0.648498H41.1529V2.97971H36.408V16H33.6496V2.97971H28.9047ZM56.5513 8.32425C56.5513 9.97833 56.2414 11.395 55.6218 12.5744C55.0071 13.7487 54.1676 14.6482 53.1032 15.2729C52.0438 15.8976 50.8419 16.2099 49.4977 16.2099C48.1534 16.2099 46.9491 15.8976 45.8847 15.2729C44.8253 14.6433 43.9857 13.7413 43.3661 12.5669C42.7514 11.3876 42.4441 9.97334 42.4441 8.32425C42.4441 6.67016 42.7514 5.25595 43.3661 4.0816C43.9857 2.90225 44.8253 2.00025 45.8847 1.3756C46.9491 0.750941 48.1534 0.438614 49.4977 0.438614C50.8419 0.438614 52.0438 0.750941 53.1032 1.3756C54.1676 2.00025 55.0071 2.90225 55.6218 4.0816C56.2414 5.25595 56.5513 6.67016 56.5513 8.32425ZM53.7553 8.32425C53.7553 7.15989 53.5729 6.17794 53.2081 5.37838C52.8483 4.57383 52.3486 3.96666 51.7089 3.55689C51.0693 3.14212 50.3322 2.93473 49.4977 2.93473C48.6631 2.93473 47.926 3.14212 47.2864 3.55689C46.6467 3.96666 46.1445 4.57383 45.7797 5.37838C45.4199 6.17794 45.24 7.15989 45.24 8.32425C45.24 9.4886 45.4199 10.4731 45.7797 11.2776C46.1445 12.0772 46.6467 12.6843 47.2864 13.0991C47.926 13.5089 48.6631 13.7138 49.4977 13.7138C50.3322 13.7138 51.0693 13.5089 51.7089 13.0991C52.3486 12.6843 52.8483 12.0772 53.2081 11.2776C53.5729 10.4731 53.7553 9.4886 53.7553 8.32425ZM28.0286 93.874C23.1593 93.874 18.8414 93.0416 15.075 91.3769C11.3294 89.6914 8.37448 87.3711 6.21034 84.4163C4.0462 81.4614 2.94332 78.0591 2.9017 74.2094H18.4461C18.5085 75.6036 18.9559 76.8418 19.7883 77.9238C20.6206 78.9851 21.7547 79.8175 23.1905 80.4209C24.6264 81.0244 26.2599 81.3261 28.0911 81.3261C29.9223 81.3261 31.535 81.0036 32.9292 80.3585C34.3442 79.6926 35.4471 78.7874 36.2378 77.6429C37.0286 76.4776 37.4135 75.1458 37.3927 73.6476C37.4135 72.1493 36.9869 70.8175 36.113 69.6522C35.239 68.4869 34.0008 67.5817 32.3985 66.9366C30.8171 66.2916 28.9442 65.969 26.7801 65.969H20.5686V54.9818H26.7801C28.6737 54.9818 30.3385 54.6697 31.7743 54.0454C33.2309 53.4212 34.365 52.5472 35.1766 51.4235C35.9881 50.279 36.3835 48.968 36.3627 47.4906C36.3835 46.0548 36.0401 44.7958 35.3326 43.7137C34.6459 42.6109 33.6783 41.7577 32.4298 41.1542C31.202 40.5508 29.7766 40.249 28.1535 40.249C26.4472 40.249 24.8969 40.5508 23.5027 41.1542C22.1293 41.7577 21.0368 42.6109 20.2252 43.7137C19.4137 44.8166 18.9871 46.0964 18.9455 47.553H4.18146C4.22308 43.7449 5.28434 40.3947 7.36524 37.5022C9.44615 34.589 12.2762 32.3104 15.8553 30.6665C19.4553 29.0225 23.5547 28.2006 28.1535 28.2006C32.7315 28.2006 36.758 29.0017 40.2332 30.604C43.7083 32.2063 46.4135 34.3913 48.3487 37.1589C50.2839 39.9057 51.2516 43.0166 51.2516 46.4917C51.2724 50.0917 50.0967 53.057 47.7244 55.3876C45.373 57.7182 42.3453 59.1541 38.6413 59.6951V60.1945C43.5938 60.7772 47.3291 62.3795 49.8469 65.0014C52.3857 67.6233 53.6446 70.9008 53.6238 74.8337C53.6238 78.5377 52.5313 81.8255 50.3464 84.6972C48.1822 87.548 45.1649 89.7954 41.2944 91.4393C37.4447 93.0624 33.0228 93.874 28.0286 93.874ZM88.7781 94.5607C83.2013 94.5607 78.3944 93.2393 74.3574 90.5966C70.3205 87.933 67.2095 84.1145 65.0246 79.1412C62.8396 74.147 61.7575 68.1436 61.7783 61.1309C61.7992 54.1183 62.8916 48.1669 65.0558 43.2767C67.2407 38.3658 70.3413 34.6306 74.3574 32.0711C78.3944 29.4907 83.2013 28.2006 88.7781 28.2006C94.3549 28.2006 99.1618 29.4907 103.199 32.0711C107.257 34.6306 110.378 38.3658 112.563 43.2767C114.748 48.1877 115.83 54.1391 115.809 61.1309C115.809 68.1644 114.717 74.1782 112.532 79.1724C110.347 84.1666 107.236 87.985 103.199 90.6278C99.1826 93.2497 94.3757 94.5607 88.7781 94.5607ZM88.7781 81.9192C92.1076 81.9192 94.8023 80.2232 96.8624 76.8314C98.9225 73.4187 99.9422 68.1852 99.9214 61.1309C99.9214 56.5113 99.4532 52.7032 98.5167 49.7067C97.5803 46.6894 96.2798 44.442 94.615 42.9646C92.9503 41.4872 91.0047 40.7484 88.7781 40.7484C85.4695 40.7484 82.7955 42.4236 80.7562 45.7738C78.7169 49.1033 77.6869 54.2223 77.6661 61.1309C77.6453 65.813 78.0926 69.6938 79.0082 72.7736C79.9447 75.8533 81.2556 78.1527 82.9412 79.6718C84.6267 81.17 86.5723 81.9192 88.7781 81.9192Z" fill="#D37528"/>
</svg>
